<svg xmlns="http://www.w3.org/2000/svg" xmlns:xlink="http://www.w3.org/1999/xlink" width="1200" zoomAndPan="magnify" viewBox="0 0 900 599.999999" height="800" preserveAspectRatio="xMidYMid meet" version="1.0"><defs><g/><clipPath id="15d1842880"><path d="M 443 232 L 634 232 L 634 438 L 443 438 Z M 443 232 " clip-rule="nonzero"/></clipPath><clipPath id="cf70874f45"><path d="M 504.761719 491.816406 L 391.269531 295.910156 L 572.574219 190.878906 L 686.066406 386.785156 Z M 504.761719 491.816406 " clip-rule="nonzero"/></clipPath><clipPath id="69e2ee4992"><path d="M 504.761719 491.816406 L 391.269531 295.910156 L 572.574219 190.878906 L 686.066406 386.785156 Z M 504.761719 491.816406 " clip-rule="nonzero"/></clipPath><clipPath id="55fb1a19a2"><path d="M 504.761719 491.816406 L 391.269531 295.910156 L 572.574219 190.878906 L 686.066406 386.785156 Z M 504.761719 491.816406 " clip-rule="nonzero"/></clipPath></defs><rect x="-90" width="1080" fill="#ffffff" y="-60" height="719.999999" fill-opacity="1"/><rect x="-90" width="1080" fill="#ffffff" y="-60" height="719.999999" fill-opacity="1"/><rect x="-90" width="1080" fill="#ffffff" y="-60" height="719.999999" fill-opacity="1"/><g fill="#000000" fill-opacity="1"><g transform="translate(109.13889, 436.011901)"><g><path d="M 23.925781 -209.347656 L 8.972656 -209.347656 L 8.972656 -201.871094 C 16.148438 -201.871094 20.335938 -201.273438 21.832031 -199.480469 C 23.328125 -197.984375 23.925781 -194.695312 23.925781 -189.910156 L 23.925781 -17.347656 C 23.925781 -13.757812 23.027344 -11.066406 21.234375 -9.570312 C 19.441406 -8.375 15.550781 -7.476562 8.972656 -7.476562 L 8.972656 0 L 68.785156 0 L 68.785156 -7.476562 C 62.207031 -7.476562 58.019531 -8.074219 56.226562 -9.269531 C 54.730469 -10.46875 53.832031 -13.160156 53.832031 -17.347656 L 53.832031 -189.609375 C 53.832031 -194.992188 54.730469 -198.582031 56.523438 -199.777344 C 58.019531 -201.273438 62.207031 -201.871094 68.785156 -201.871094 L 68.785156 -209.347656 Z M 23.925781 -209.347656 "/></g></g></g><g fill="#000000" fill-opacity="1"><g transform="translate(136.64338, 436.011901)"><g><path d="M 8.972656 -209.347656 L 8.972656 -173.160156 L 16.449219 -173.160156 C 16.449219 -183.328125 17.644531 -189.011719 19.441406 -191.105469 C 21.53125 -193.5 25.71875 -194.394531 31.703125 -194.394531 L 74.167969 -194.394531 C 74.46875 -193.199219 74.46875 -191.703125 74.46875 -189.910156 L 74.46875 -17.347656 C 74.46875 -13.757812 73.570312 -11.066406 71.476562 -9.570312 C 69.683594 -8.375 65.796875 -7.476562 59.515625 -7.476562 L 59.515625 0 L 119.328125 0 L 119.328125 -7.476562 C 112.449219 -7.476562 108.5625 -8.074219 106.769531 -9.269531 C 105.273438 -10.46875 104.375 -13.160156 104.375 -17.347656 L 104.375 -189.609375 C 104.375 -191.703125 104.675781 -193.199219 104.675781 -194.394531 L 146.542969 -194.394531 C 153.125 -194.394531 157.609375 -193.199219 159.40625 -190.808594 C 161.199219 -188.714844 162.097656 -182.730469 162.097656 -173.160156 L 169.574219 -173.160156 L 169.574219 -209.347656 Z M 8.972656 -209.347656 "/></g></g></g><g fill="#000000" fill-opacity="1"><g transform="translate(264.923981, 436.011901)"><g><path d="M 108.261719 0 L 124.414062 -38.28125 L 157.011719 -115.738281 L 163.292969 -130.695312 L 169.574219 -145.648438 L 176.152344 -160.601562 L 187.21875 -186.917969 C 189.910156 -192.898438 192.898438 -196.789062 196.488281 -198.582031 C 200.675781 -200.976562 206.957031 -201.871094 215.929688 -201.871094 L 215.929688 -209.347656 L 156.113281 -209.347656 L 156.113281 -201.871094 L 157.011719 -201.871094 C 165.984375 -201.871094 171.066406 -200.675781 172.5625 -197.683594 C 173.160156 -197.085938 173.160156 -196.191406 173.160156 -194.992188 C 173.160156 -193.199219 172.5625 -190.507812 170.769531 -186.917969 L 159.703125 -160.601562 L 147.140625 -130.695312 L 140.863281 -115.738281 L 116.339844 -57.71875 L 91.515625 -115.738281 L 85.234375 -130.695312 L 78.953125 -145.648438 L 72.675781 -160.601562 L 61.609375 -186.917969 C 60.113281 -190.808594 59.214844 -193.796875 59.214844 -195.589844 C 59.214844 -196.488281 59.515625 -197.085938 59.515625 -197.683594 C 60.710938 -200.375 63.703125 -201.871094 68.785156 -201.871094 L 68.785156 -209.347656 L 8.972656 -209.347656 L 8.972656 -201.871094 C 16.449219 -201.574219 21.53125 -199.777344 24.226562 -196.191406 C 25.421875 -194.992188 26.917969 -192.003906 29.011719 -186.917969 L 40.074219 -160.601562 L 46.65625 -145.648438 L 52.933594 -130.695312 L 59.214844 -115.738281 L 99.890625 -19.140625 Z M 108.261719 0 "/></g></g></g><g fill="#000000" fill-opacity="1"><g transform="translate(439.537325, 436.011901)"><g/></g></g><g fill="#000000" fill-opacity="1"><g transform="translate(479.003351, 436.011901)"><g/></g></g><g fill="#000000" fill-opacity="1"><g transform="translate(518.469378, 436.011901)"><g/></g></g><g fill="#000000" fill-opacity="1"><g transform="translate(557.9354, 436.011901)"><g/></g></g><g fill="#000000" fill-opacity="1"><g transform="translate(597.38888, 436.011901)"><g><path d="M 8.972656 -209.347656 L 8.972656 -201.871094 C 14.65625 -201.871094 18.542969 -201.273438 20.636719 -200.078125 C 23.027344 -199.179688 24.226562 -197.683594 24.226562 -195.589844 L 24.226562 -173.160156 L 31.703125 -173.160156 C 31.703125 -181.535156 33.195312 -187.21875 35.886719 -189.910156 C 38.878906 -192.898438 45.160156 -194.394531 54.132812 -194.394531 L 81.046875 -194.394531 C 101.382812 -194.394531 118.730469 -185.722656 133.085938 -168.078125 C 147.441406 -150.730469 154.621094 -129.496094 154.621094 -104.675781 C 154.621094 -80.152344 147.441406 -58.917969 133.085938 -41.273438 C 118.730469 -23.925781 101.382812 -14.953125 81.046875 -14.953125 L 54.132812 -14.953125 C 44.261719 -14.953125 37.980469 -16.746094 35.289062 -20.039062 C 32.898438 -23.027344 31.703125 -28.410156 31.703125 -36.1875 L 24.226562 -36.1875 L 24.226562 -13.757812 C 24.226562 -11.960938 23.027344 -10.46875 21.234375 -9.269531 C 19.441406 -8.074219 15.253906 -7.476562 8.972656 -7.476562 L 8.972656 0 L 80.75 0 C 99.890625 0 116.9375 -4.785156 132.785156 -14.054688 C 148.9375 -23.625 161.199219 -35.886719 170.46875 -52.039062 C 180.039062 -68.1875 184.527344 -85.832031 184.527344 -104.675781 C 184.527344 -123.816406 180.339844 -140.863281 170.769531 -157.011719 C 161.496094 -173.160156 149.234375 -186.023438 133.085938 -195.292969 C 117.234375 -204.863281 99.890625 -209.347656 81.046875 -209.347656 Z M 8.972656 -209.347656 "/></g></g></g><g clip-path="url(#15d1842880)"><g clip-path="url(#cf70874f45)"><g clip-path="url(#69e2ee4992)"><g clip-path="url(#55fb1a19a2)"><path fill="#000000" d="M 478.667969 250.875 C 507.722656 228.523438 548.300781 226.882812 580.390625 244.179688 C 611.710938 260.921875 632.191406 294.375 633.714844 329.8125 C 636.609375 409.855469 552.394531 464.28125 481.773438 424.476562 C 477.570312 422.003906 473.589844 419.21875 469.832031 416.113281 C 466.070312 413.007812 462.582031 409.625 459.363281 405.964844 C 456.144531 402.304688 453.234375 398.410156 450.636719 394.285156 C 448.039062 390.160156 445.785156 385.855469 443.871094 381.375 C 446.8125 385.023438 449.949219 388.496094 453.285156 391.789062 L 455.769531 394.28125 C 457.246094 395.878906 461.90625 399.445312 463.570312 400.957031 C 495.3125 424.84375 539.644531 427.410156 572.34375 404.398438 C 603.800781 383.210938 617.625 342.375 606.226562 306.3125 C 605.4375 304.375 603.90625 299.425781 602.933594 297.613281 C 599.15625 288.929688 594.113281 281.050781 587.8125 273.984375 C 583.570312 269.195312 578.878906 264.894531 573.734375 261.089844 C 568.59375 257.285156 563.113281 254.050781 557.292969 251.394531 C 552.71875 249.371094 548.019531 247.707031 543.191406 246.40625 C 538.363281 245.105469 533.460938 244.179688 528.492188 243.632812 C 523.519531 243.082031 518.535156 242.914062 513.539062 243.132812 C 508.542969 243.347656 503.589844 243.941406 498.6875 244.917969 C 496.417969 245.332031 494.179688 245.867188 491.972656 246.527344 C 487.445312 247.742188 482.996094 249.199219 478.625 250.902344 Z M 478.667969 250.875 " fill-opacity="1" fill-rule="nonzero"/></g></g></g></g></svg>